<?xml version="1.0" encoding="UTF-8"?>
<svg xmlns="http://www.w3.org/2000/svg" viewBox="0 0 1200 630" width="1200" height="630">
  <defs>
    <linearGradient id="g9918" x1="97.81523779815177%" y1="35.38141476386315%" x2="2.18476220184823%" y2="64.61858523613685%">
      <stop offset="0%" stop-color="#059669"/>
      <stop offset="100%" stop-color="#047857"/>
    </linearGradient>
  </defs>
  <rect width="1200" height="630" fill="url(#g9918)"/>
  <path d="M 80 291.44694216083735 L 80 291.44694216083735 L 88 291.44694216083735 L 96 291.44694216083735 L 104 291.44694216083735 L 112 291.44694216083735 L 120 291.44694216083735 L 128 291.44694216083735 L 136 291.44694216083735 L 144 291.44694216083735 L 152 291.44694216083735 L 160 291.44694216083735 L 168 291.44694216083735 L 176 291.44694216083735 L 184 291.44694216083735 L 192 291.44694216083735 L 200 291.44694216083735 L 208 291.44694216083735 L 216 291.44694216083735 L 224 291.44694216083735 L 232 291.44694216083735 L 240 291.44694216083735 L 248 291.44694216083735 L 256 250.46630407482868 L 264 206.41858164111704 L 272 229.28998239897456 L 280 291.44694216083735 L 288 291.44694216083735 L 296 291.44694216083735 L 304 291.44694216083735 L 312 291.44694216083735 L 320 291.44694216083735 L 328 291.44694216083735 L 336 291.44694216083735 L 344 291.44694216083735 L 352 291.44694216083735 L 360 291.44694216083735 L 368 291.44694216083735 L 376 291.44694216083735 L 384 291.44694216083735 L 392 291.44694216083735 L 400 291.44694216083735 L 408 291.44694216083735 L 416 291.44694216083735 L 424 291.44694216083735 L 432 291.44694216083735 L 440 291.44694216083735 L 448 291.44694216083735 L 456 291.44694216083735 L 464 291.44694216083735 L 472 291.44694216083735 L 480 291.44694216083735 L 488 291.44694216083735 L 496 291.44694216083735 L 504 252.43608901343134 L 512 212.5612059847737 L 520 221.65977993145555 L 528 271.97981465028334 L 536 291.44694216083735 L 544 291.44694216083735 L 552 291.44694216083735 L 560 291.44694216083735 L 568 291.44694216083735 L 576 291.44694216083735 L 584 291.44694216083735 L 592 291.44694216083735 L 600 291.44694216083735 L 608 291.44694216083735 L 616 291.44694216083735 L 624 291.44694216083735 L 632 291.44694216083735 L 640 291.44694216083735 L 648 291.44694216083735 L 656 291.44694216083735 L 664 291.44694216083735 L 672 291.44694216083735 L 680 291.44694216083735 L 688 291.44694216083735 L 696 291.44694216083735 L 704 291.44694216083735 L 712 291.44694216083735 L 720 291.44694216083735 L 728 291.44694216083735 L 736 291.44694216083735 L 744 291.44694216083735 L 752 274.56202569056876 L 760 233.66279543508242 L 768 201.90345188861045 L 776 254.2968415812874 L 784 291.44694216083735 L 792 291.44694216083735 L 800 291.44694216083735 L 808 291.44694216083735 L 816 291.44694216083735 L 824 291.44694216083735 L 832 291.44694216083735 L 840 291.44694216083735 L 848 291.44694216083735 L 856 291.44694216083735 L 864 291.44694216083735 L 872 291.44694216083735 L 880 291.44694216083735 L 888 291.44694216083735 L 896 291.44694216083735 L 904 291.44694216083735 L 912 291.44694216083735 L 920 291.44694216083735 L 928 291.44694216083735 L 936 291.44694216083735 L 944 291.44694216083735 L 952 291.44694216083735 L 960 291.44694216083735 L 968 291.44694216083735 L 976 291.44694216083735 L 984 291.44694216083735 L 992 291.44694216083735 L 1000 291.44694216083735 L 1008 239.3468026688289 L 1016 208.03000146929185 L 1024 236.5580389400933 L 1032 291.44694216083735 L 1040 291.44694216083735 L 1048 291.44694216083735 L 1056 291.44694216083735 L 1064 291.44694216083735 L 1072 291.44694216083735 L 1080 291.44694216083735 L 1088 291.44694216083735 L 1096 291.44694216083735 L 1104 291.44694216083735 L 1112 291.44694216083735 L 1120 291.44694216083735" fill="none" stroke="rgba(255,255,255,0.18)" stroke-width="2.5"/><rect x="247.41256708465517" y="166.55909407883883" width="24" height="80" rx="4" fill="rgba(255,255,255,0.1)"/><rect x="219.41256708465517" y="194.55909407883883" width="80" height="24" rx="4" fill="rgba(255,255,255,0.1)"/><path d="M 876.8010432366282 243.12002927064896 C 876.8010432366282 228.12002927064896 841.8010432366282 193.12002927064896 841.8010432366282 208.12002927064896 C 841.8010432366282 223.12002927064896 876.8010432366282 238.12002927064896 876.8010432366282 258.12002927064896 C 876.8010432366282 238.12002927064896 911.8010432366282 223.12002927064896 911.8010432366282 208.12002927064896 C 911.8010432366282 193.12002927064896 876.8010432366282 228.12002927064896 876.8010432366282 243.12002927064896 Z" fill="rgba(255,255,255,0.08)" stroke="rgba(255,255,255,0.15)" stroke-width="1.5"/><circle cx="904.714710242115" cy="459.66942047234625" r="30.21860851487145" fill="none" stroke="rgba(255,255,255,0.08882408438250422)" stroke-width="1.5"/><circle cx="575.0919622834772" cy="463.5461500566453" r="14.116879227105528" fill="none" stroke="rgba(255,255,255,0.0939651040919125)" stroke-width="1.5"/><circle cx="979.7053783899173" cy="470.37122598383576" r="25.82018230506219" fill="none" stroke="rgba(255,255,255,0.11958805808797479)" stroke-width="1.5"/><circle cx="280.5592814460397" cy="556.3888739841059" r="16.104890883900225" fill="none" stroke="rgba(255,255,255,0.09646906781941653)" stroke-width="1.5"/>
  <circle cx="536.028946749866" cy="116.53936476213858" r="1.9650584245100617" fill="rgba(255,255,255,0.05215188195696101)"/><circle cx="55.33022051677108" cy="142.06811375683174" r="1.095219501759857" fill="rgba(255,255,255,0.030475314632058142)"/><circle cx="130.17085622996092" cy="62.35125544248149" r="1.0545672681182623" fill="rgba(255,255,255,0.052572912857867776)"/><circle cx="752.6339870877564" cy="221.36706796009094" r="1.1434099646285176" fill="rgba(255,255,255,0.047191453150007875)"/><circle cx="857.2256161831319" cy="175.26853927178308" r="2.42086463002488" fill="rgba(255,255,255,0.048271425052080305)"/><circle cx="48.26547810807824" cy="547.9927575588226" r="2.83424349501729" fill="rgba(255,255,255,0.0711563340923749)"/><circle cx="562.7656158059835" cy="188.7617542175576" r="1.8931501479819417" fill="rgba(255,255,255,0.06429758683778346)"/><circle cx="315.60643147677183" cy="462.4757777550258" r="2.4051897791214287" fill="rgba(255,255,255,0.04338074411032721)"/><circle cx="1132.8810285776854" cy="548.1175177241676" r="1.667811380699277" fill="rgba(255,255,255,0.04174288635374978)"/><circle cx="1149.6677197515965" cy="170.91569369891658" r="2.558997237123549" fill="rgba(255,255,255,0.03168182051274925)"/><circle cx="1059.1952319256961" cy="349.3723198072985" r="2.039093143772334" fill="rgba(255,255,255,0.032541899203788485)"/><circle cx="45.06966294720769" cy="623.7837379728444" r="2.3182681570760906" fill="rgba(255,255,255,0.030907286535948514)"/>
  <text x="600" y="335" font-family="system-ui, -apple-system, 'Segoe UI', sans-serif" font-size="68" font-weight="700" fill="rgba(0,0,0,0.15)" text-anchor="middle" letter-spacing="1">OET</text>
  <text x="600" y="332" font-family="system-ui, -apple-system, 'Segoe UI', sans-serif" font-size="68" font-weight="700" fill="white" text-anchor="middle" letter-spacing="1">OET</text>
  <g transform="translate(1140, 575)">
    <rect x="0" y="0" width="40" height="40" rx="8" fill="rgba(255,255,255,0.15)"/>
    <text x="20" y="29" font-family="sans-serif" font-weight="bold" font-size="24" fill="rgba(255,255,255,0.6)" text-anchor="middle">K</text>
  </g>
</svg>